<svg width="28" height="25" viewBox="0 0 28 25" fill="none" xmlns="http://www.w3.org/2000/svg">
<path d="M24.7644 1.57813C24.4533 0.65625 23.5822 0 22.5556 0H5.44444C4.41778 0 3.56222 0.65625 3.23556 1.57813L0 10.9375V23.4375C0 24.2969 0.7 25 1.55556 25H3.11111C3.96667 25 4.66667 24.2969 4.66667 23.4375V21.875H23.3333V23.4375C23.3333 24.2969 24.0333 25 24.8889 25H26.4444C27.3 25 28 24.2969 28 23.4375V10.9375L24.7644 1.57813ZM7 17.1875C5.70889 17.1875 4.66667 16.1406 4.66667 14.8438C4.66667 13.5469 5.70889 12.5 7 12.5C8.29111 12.5 9.33333 13.5469 9.33333 14.8438C9.33333 16.1406 8.29111 17.1875 7 17.1875ZM21 17.1875C19.7089 17.1875 18.6667 16.1406 18.6667 14.8438C18.6667 13.5469 19.7089 12.5 21 12.5C22.2911 12.5 23.3333 13.5469 23.3333 14.8438C23.3333 16.1406 22.2911 17.1875 21 17.1875ZM4.37111 7.8125L5.98889 3.125H21.9956L23.6133 7.8125H4.37111Z" fill="#252525"/>
</svg>
