<svg width="32" height="32" viewBox="0 0 32 32" fill="none" xmlns="http://www.w3.org/2000/svg">
<path d="M15.8841 3.75488C20.0195 3.75488 20.5093 3.77301 22.1357 3.84553C23.6472 3.91201 24.4634 4.16585 25.0075 4.37738C25.727 4.65538 26.247 4.99383 26.785 5.53171C27.3292 6.07564 27.6617 6.58936 27.9398 7.30855C28.1514 7.85248 28.4054 8.67442 28.4719 10.1793C28.5444 11.8111 28.5626 12.3006 28.5626 16.4284C28.5626 20.5623 28.5444 21.0518 28.4719 22.6776C28.4054 24.1885 28.1514 25.0044 27.9398 25.5483C27.6617 26.2675 27.3231 26.7873 26.785 27.3252C26.2409 27.8691 25.727 28.2015 25.0075 28.4795C24.4634 28.691 23.6411 28.9449 22.1357 29.0113C20.5032 29.0839 20.0135 29.102 15.8841 29.102C11.7486 29.102 11.2589 29.0839 9.63248 29.0113C8.12098 28.9449 7.30476 28.691 6.76062 28.4795C6.04114 28.2015 5.52119 27.863 4.98309 27.3252C4.43895 26.7812 4.10642 26.2675 3.8283 25.5483C3.61669 25.0044 3.36276 24.1825 3.29625 22.6776C3.2237 21.0458 3.20556 20.5563 3.20556 16.4284C3.20556 12.2946 3.2237 11.805 3.29625 10.1793C3.36276 8.66837 3.61669 7.85248 3.8283 7.30855C4.10642 6.58936 4.44499 6.0696 4.98309 5.53171C5.52723 4.98778 6.04114 4.65538 6.76062 4.37738C7.30476 4.16585 8.12702 3.91201 9.63248 3.84553C11.2589 3.77301 11.7486 3.75488 15.8841 3.75488ZM15.8841 0.96875C11.6821 0.96875 11.1561 0.986881 9.50551 1.0594C7.861 1.13193 6.73039 1.39785 5.75093 1.7786C4.72916 2.17748 3.86458 2.70328 3.00604 3.56752C2.14146 4.42572 1.61545 5.28997 1.21642 6.3053C0.835518 7.29042 0.569493 8.41454 0.49694 10.0584C0.424388 11.7144 0.40625 12.2402 0.40625 16.4405C0.40625 20.6409 0.424388 21.1667 0.49694 22.8166C0.569493 24.4605 0.835518 25.5906 1.21642 26.5697C1.61545 27.5911 2.14146 28.4553 3.00604 29.3135C3.86458 30.1717 4.72916 30.7036 5.74489 31.0964C6.73039 31.4772 7.85495 31.7431 9.49947 31.8156C11.15 31.8881 11.676 31.9063 15.878 31.9063C20.08 31.9063 20.606 31.8881 22.2566 31.8156C23.9011 31.7431 25.0317 31.4772 26.0112 31.0964C27.0269 30.7036 27.8915 30.1717 28.75 29.3135C29.6085 28.4553 30.1406 27.5911 30.5336 26.5757C30.9145 25.5906 31.1805 24.4665 31.2531 22.8226C31.3256 21.1727 31.3437 20.6469 31.3437 16.4466C31.3437 12.2462 31.3256 11.7204 31.2531 10.0705C31.1805 8.42663 30.9145 7.29646 30.5336 6.31739C30.1527 5.28997 29.6267 4.42572 28.7621 3.56752C27.9036 2.70932 27.039 2.17748 26.0232 1.78464C25.0377 1.40389 23.9132 1.13797 22.2687 1.06545C20.6121 0.986881 20.0861 0.96875 15.8841 0.96875Z" fill="#4D77FF"/>
<path d="M15.8841 8.4931C11.4947 8.4931 7.93359 12.0528 7.93359 16.4405C7.93359 20.8282 11.4947 24.3879 15.8841 24.3879C20.2735 24.3879 23.8346 20.8282 23.8346 16.4405C23.8346 12.0528 20.2735 8.4931 15.8841 8.4931ZM15.8841 21.5958C13.0364 21.5958 10.7269 19.2871 10.7269 16.4405C10.7269 13.594 13.0364 11.2853 15.8841 11.2853C18.7318 11.2853 21.0414 13.594 21.0414 16.4405C21.0414 19.2871 18.7318 21.5958 15.8841 21.5958Z" fill="#4D77FF"/>
<path d="M26.0047 8.17877C26.0047 9.20619 25.1704 10.0342 24.1486 10.0342C23.1208 10.0342 22.2925 9.20015 22.2925 8.17877C22.2925 7.15135 23.1268 6.32336 24.1486 6.32336C25.1704 6.32336 26.0047 7.15739 26.0047 8.17877Z" fill="#4D77FF"/>
</svg>
