<svg width="105" height="13" viewBox="0 0 105 13" fill="none" xmlns="http://www.w3.org/2000/svg">
<path fill-rule="evenodd" clip-rule="evenodd" d="M31.9308 12.3732C23.1078 -14.0936 10.8616 11.589 0 2.33225C10.6901 18.926 21.5361 -7.06863 31.9308 12.3732Z" fill="#4D77FF"/>
<path fill-rule="evenodd" clip-rule="evenodd" d="M30.3342 12.0106C22.3046 1.82501 20.8254 9.4512 8.78098 10.6879C15.6837 16.7423 23.2848 7.19025 30.3342 12.0106Z" fill="#FFD704"/>
<path fill-rule="evenodd" clip-rule="evenodd" d="M31.9308 12.3732C23.1078 -14.0936 10.8616 11.589 0 2.33225C10.6901 18.926 21.5361 -7.06863 31.9308 12.3732Z" fill="#4D77FF"/>
<path fill-rule="evenodd" clip-rule="evenodd" d="M31.9308 12.3732C23.1078 -14.0936 10.8616 11.589 0 2.33225C10.6901 18.926 21.5361 -7.06863 31.9308 12.3732Z" fill="#4D77FF"/>
<path fill-rule="evenodd" clip-rule="evenodd" d="M30.3342 12.0106C22.3046 1.82501 20.8254 9.4512 8.78098 10.6879C15.6837 16.7423 23.2848 7.19025 30.3342 12.0106Z" fill="#FFD704"/>
<path d="M42.3362 12C44.6981 12 46.4477 10.8154 47.06 8.86923L44.9605 8.1641C44.5523 9.46154 43.6192 10.1667 42.307 10.1667C40.4408 10.1667 39.2744 8.75641 39.2744 6.5C39.2744 4.24359 40.47 2.83333 42.307 2.83333C43.6192 2.83333 44.5523 3.53846 44.9605 4.8359L47.06 4.13077C46.4185 2.12821 44.6981 1 42.3362 1C39.1578 1 37 3.22821 37 6.5C37 9.82821 39.1286 12 42.3362 12Z" fill="#252525"/>
<path d="M56.3328 1.14103V5.3718H51.3756V1.14103H49.1304V11.859H51.3756V7.34615H56.3328V11.859H58.578V1.14103H56.3328Z" fill="#252525"/>
<path d="M66.3053 12C69.542 12 71.7581 9.7718 71.7581 6.5C71.7581 3.17179 69.6003 1 66.3053 1C63.0686 1 60.8816 3.22821 60.8816 6.5C60.8816 9.82821 63.0395 12 66.3053 12ZM66.3053 10.1103C64.41 10.1103 63.1561 8.7 63.1561 6.5C63.1561 4.3 64.41 2.88974 66.3053 2.88974C68.2007 2.88974 69.4545 4.3 69.4545 6.5C69.4545 8.7 68.2007 10.1103 66.3053 10.1103Z" fill="#252525"/>
<path d="M81.0892 1.14103L77.9983 9.7718L74.9074 1.14103H72.5163L76.5695 11.859H79.3979L83.4511 1.14103H81.0892Z" fill="#252525"/>
<path d="M87.5043 9.94103V7.28974H91.8491V5.42821H87.5043V3.05897H93.1612V1.14103H85.2882V11.859H93.307V9.94103H87.5043Z" fill="#252525"/>
<path d="M102.842 1.14103V8.36154L97.5935 1.14103H95.4357V11.859H97.5935V4.61026L102.901 11.859H105V1.14103H102.842Z" fill="#252525"/>
</svg>
