<svg width="116" height="16" viewBox="0 0 116 16" fill="none" xmlns="http://www.w3.org/2000/svg">
<path fill-rule="evenodd" clip-rule="evenodd" d="M37.5848 14.6948C27.244 -16.3251 12.8911 13.7758 0.16095 2.92654C12.6901 22.3749 25.4019 -8.09159 37.5848 14.6948Z" fill="#4D77FF"/>
<path fill-rule="evenodd" clip-rule="evenodd" d="M35.7137 14.2701C26.3027 2.33222 24.5691 11.2704 10.4526 12.7198C18.5428 19.8157 27.4516 8.62045 35.7137 14.2701Z" fill="#FFD704"/>
<path d="M51.2424 0.384986V6.75509H47.7503C46.0235 6.75509 45.2176 6.06435 45.2176 4.49101V0.384986H42.2628V4.75963C42.2628 7.79119 44.1048 9.36453 47.4817 9.36453H51.2424V14.9671H54.1972V0.384986H51.2424Z" fill="#252525"/>
<path d="M64.3663 15.159C68.6258 15.159 71.5423 12.1275 71.5423 7.67606C71.5423 3.14792 68.7026 0.193115 64.3663 0.193115C60.1068 0.193115 57.2287 3.22467 57.2287 7.67606C57.2287 12.2042 60.0684 15.159 64.3663 15.159ZM64.3663 12.5879C61.872 12.5879 60.2219 10.6692 60.2219 7.67606C60.2219 4.68288 61.872 2.76418 64.3663 2.76418C66.8606 2.76418 68.5107 4.68288 68.5107 7.67606C68.5107 10.6692 66.8606 12.5879 64.3663 12.5879Z" fill="#252525"/>
<path d="M84.0522 7.52257C85.2418 6.87021 85.9325 5.71899 85.9325 4.26077C85.9325 1.88158 84.1673 0.384986 81.2509 0.384986H74.5354V14.9671H81.366C84.3976 14.9671 86.2012 13.4322 86.2012 10.9762C86.2012 9.36453 85.4337 8.17493 84.0522 7.52257ZM80.7904 2.80255C82.287 2.80255 83.0545 3.37817 83.0545 4.56776C83.0545 5.75736 82.287 6.33297 80.7904 6.33297H77.3751V2.80255H80.7904ZM80.8288 12.5496H77.3751V8.67379H80.8288C82.4789 8.67379 83.2847 9.32615 83.2847 10.6309C83.2847 11.9356 82.4789 12.5496 80.8288 12.5496Z" fill="#252525"/>
<path d="M92.1491 12.3577V8.75054H97.8669V6.21785H92.1491V2.99442H99.5937V0.384986H89.2327V14.9671H99.7856V12.3577H92.1491Z" fill="#252525"/>
<path d="M112.065 0.384986V6.1411H105.542V0.384986H102.587V14.9671H105.542V8.82729H112.065V14.9671H115.02V0.384986H112.065Z" fill="#252525"/>
</svg>
