<svg width="28" height="28" viewBox="0 0 28 28" fill="none" xmlns="http://www.w3.org/2000/svg">
<path d="M25.452 5.8135C25.3789 5.58882 25.2366 5.39302 25.0455 5.25409C24.8544 5.11516 24.6243 5.04022 24.388 5.04H21.84V1.12C21.84 0.5005 21.3395 0 20.72 0H7.28C6.6605 0 6.16 0.5005 6.16 1.12V5.04H3.612C3.3756 5.03968 3.1452 5.11441 2.95399 5.25342C2.76278 5.39242 2.62062 5.58853 2.548 5.8135L0 13.65V26.88C0 27.4995 0.5005 28 1.12 28H26.88C27.4995 28 28 27.4995 28 26.88V13.65L25.452 5.8135ZM19.18 18.06C19.18 18.214 19.054 18.34 18.9 18.34H15.12V22.12C15.12 22.274 14.994 22.4 14.84 22.4H13.16C13.006 22.4 12.88 22.274 12.88 22.12V18.34H9.1C8.946 18.34 8.82 18.214 8.82 18.06V16.38C8.82 16.226 8.946 16.1 9.1 16.1H12.88V12.32C12.88 12.166 13.006 12.04 13.16 12.04H14.84C14.994 12.04 15.12 12.166 15.12 12.32V16.1H18.9C19.054 16.1 19.18 16.226 19.18 16.38V18.06ZM19.32 5.04H8.68V2.52H19.32V5.04Z" fill="#252525"/>
</svg>
