<svg width="37" height="24" viewBox="0 0 37 24" fill="none" xmlns="http://www.w3.org/2000/svg">
<path d="M28.2227 22.3865C24.7025 22.3865 21.8483 19.5326 21.8483 16.0117C21.8483 12.4913 24.7025 9.63726 28.2227 9.63726C31.7437 9.63726 34.5976 12.4913 34.5976 16.0117C34.5976 19.5326 31.7437 22.3865 28.2227 22.3865ZM7.81761 22.3865C4.29676 22.3865 1.44307 19.5326 1.44307 16.0117C1.44307 12.4913 4.29676 9.63726 7.81761 9.63726C11.3382 9.63726 14.1922 12.4913 14.1922 16.0117C14.1922 19.5326 11.3382 22.3865 7.81761 22.3865ZM28.2227 23.7114C32.5404 23.7114 36.0405 20.2116 36.0405 15.8939C36.0405 14.602 35.7251 13.3845 35.1702 12.311L31.9424 4.12496C31.4099 1.76436 29.3015 3.8147e-06 26.7797 3.8147e-06C24.0062 3.8147e-06 21.7322 2.134 21.5063 4.8493L21.4867 4.85403L21.3618 6.26566H19.835C19.8224 5.28909 19.028 4.50056 18.0483 4.50056C17.0684 4.50056 16.2738 5.28909 16.2614 6.26566H14.6787L14.5538 4.85403L14.5338 4.8493C14.3082 2.134 12.0341 3.8147e-06 9.26071 3.8147e-06C6.73895 3.8147e-06 4.63068 1.76436 4.09811 4.12496L0.869989 12.3114C0.631193 12.7739 0.43727 13.2626 0.293669 13.7729L0.293247 13.774H0.293445C0.103777 14.4485 0 15.1588 0 15.8939C0 20.2116 3.49998 23.7114 7.81761 23.7114C12.1352 23.7114 15.6353 20.2116 15.6353 15.8939C15.6353 15.1588 15.5317 14.4485 15.3419 13.774H15.3432L15.0211 10.1341H21.0193L20.6971 13.774H20.6984C20.5088 14.4485 20.4051 15.1588 20.4051 15.8939C20.4051 20.2116 23.9055 23.7114 28.2227 23.7114Z" fill="#242424"/>
</svg>
