<svg width="28" height="26" viewBox="0 0 28 26" fill="none" xmlns="http://www.w3.org/2000/svg">
<path fill-rule="evenodd" clip-rule="evenodd" d="M17.3551 2.85685C17.1571 3.00931 17.1202 3.29342 17.2727 3.49143L17.5487 3.84995L1.03557 16.3307C0.837565 16.4832 0.800646 16.7673 0.95311 16.9653L4.81796 21.9846C4.97042 22.1826 5.25453 22.2195 5.45254 22.0671L21.9657 9.58629L22.2418 9.94482C22.3942 10.1428 22.6783 10.1797 22.8763 10.0273L25.386 8.09485C25.584 7.94239 25.6209 7.65828 25.4685 7.46027L24.9924 6.84206C24.9772 6.80375 24.9565 6.76689 24.9301 6.73261L21.0653 1.71331C21.0389 1.67903 21.0085 1.64957 20.9754 1.6251L20.4994 1.00689C20.3469 0.80888 20.0628 0.771962 19.8648 0.924425L17.3551 2.85685Z" fill="#252525"/>
<path fill-rule="evenodd" clip-rule="evenodd" d="M24.0489 16C23.7774 16 23.5574 16.2201 23.5574 16.4915V16.9831L1.07344 16.7814C0.801982 16.7814 0.581918 17.0014 0.581918 17.2729L0.581918 24.1543C0.581918 24.4257 0.801982 24.6458 1.07344 24.6458L23.5574 24.8475V25.339C23.5574 25.6104 23.7774 25.8305 24.0489 25.8305H27.4896C27.761 25.8305 27.9811 25.6104 27.9811 25.339V24.4914C27.9934 24.4484 28 24.4029 28 24.3559V17.4746C28 17.4276 27.9934 17.3821 27.9811 17.3391V16.4915C27.9811 16.2201 27.761 16 27.4896 16H24.0489Z" fill="#252525"/>
</svg>
