<svg width="30" height="25" viewBox="0 0 30 25" fill="none" xmlns="http://www.w3.org/2000/svg">
<path d="M9.35273 24.6875C20.4939 24.6875 26.5893 15.4891 26.5893 7.51471C26.5893 7.25612 26.5835 6.99178 26.572 6.73319C27.7577 5.87885 28.781 4.82063 29.5938 3.60825C28.4894 4.09776 27.3169 4.41746 26.1163 4.55642C27.3805 3.80147 28.327 2.61547 28.7805 1.21829C27.5912 1.92048 26.2906 2.41582 24.9345 2.68307C24.0208 1.71576 22.8126 1.07528 21.4969 0.860669C20.1811 0.646054 18.8311 0.86925 17.6554 1.49575C16.4798 2.12225 15.544 3.11716 14.9928 4.32665C14.4416 5.53615 14.3057 6.89287 14.6061 8.18705C12.198 8.06665 9.84219 7.44341 7.69138 6.35774C5.54058 5.27206 3.64279 3.74818 2.12104 1.88488C1.3476 3.21344 1.11093 4.78556 1.45912 6.28172C1.80731 7.77789 2.71424 9.08583 3.99558 9.93973C3.03362 9.9093 2.09274 9.65126 1.25067 9.18694V9.26164C1.24981 10.6559 1.7336 12.0074 2.6198 13.0864C3.50599 14.1654 4.73991 14.9054 6.11179 15.1805C5.22069 15.4234 4.28545 15.4588 3.37842 15.284C3.76554 16.483 4.51873 17.5317 5.53288 18.2837C6.54703 19.0358 7.77154 19.4536 9.0355 19.4789C6.88966 21.1582 4.23893 22.0691 1.51022 22.0648C1.02631 22.0641 0.542874 22.0345 0.0625 21.9763C2.83457 23.7482 6.05923 24.6892 9.35273 24.6875Z" fill="#4D77FF"/>
</svg>
